Coordinates
version=1
nRows=16
nColumns=40
inDegrees=yes

Units are S.I. units (second, meters, Newtons, ...)
Angles are in degrees.

endheader
time	pelvis_tilt	pelvis_list	pelvis_rotation	pelvis_tx	pelvis_ty	pelvis_tz	hip_flexion_r	hip_adduction_r	hip_rotation_r	knee_angle_r	knee_angle_r_beta	ankle_angle_r	subtalar_angle_r	mtp_angle_r	hip_flexion_l	hip_adduction_l	hip_rotation_l	knee_angle_l	knee_angle_l_beta	ankle_angle_l	subtalar_angle_l	mtp_angle_l	lumbar_extension	lumbar_bending	lumbar_rotation	arm_flex_r	arm_add_r	arm_rot_r	elbow_flex_r	pro_sup_r	wrist_flex_r	wrist_dev_r	arm_flex_l	arm_add_l	arm_rot_l	elbow_flex_l	pro_sup_l	wrist_flex_l	wrist_dev_l
      2.77500000	     -4.37894037	     -5.32895520	      0.67267404	      0.96996750	      0.91371622	      0.51185909	     15.68279239	      6.17585122	     -4.87758104	     28.78567735	     28.78567735	     17.89636996	     -8.61907684	      0.39931690	     32.05034565	    -11.82624670	      5.22744082	     66.70441935	     66.70441935	     13.88602566	    -19.55263336	     22.35574004	    -12.97394579	      5.83483475	      0.35489656	     11.72158836	    -18.47479793	      0.28512538	     64.08711178	     44.89793287	      0.00000000	      0.00000000	      6.86460447	     -9.82343545	      2.41088669	     28.78156585	     46.85101183	      0.00000000	      0.00000000
      2.79285714	     -4.17130615	     -5.27258168	      1.42923092	      0.96987764	      0.91233859	      0.51230431	     15.55606755	      6.17698710	     -5.00480511	     29.63569382	     29.63569382	     18.41185730	     -9.65619731	      0.39586006	     33.13631706	    -11.87187781	      5.11717855	     65.47653211	     65.47653211	     14.59814180	    -19.59317682	     22.61902129	    -13.06075627	      5.56626054	      0.05070417	     13.53551379	    -17.94406141	      0.06870139	     66.09991504	     44.85227855	      0.00000000	      0.00000000	      5.30701290	    -10.05858187	      2.27055115	     27.48310225	     46.83763871	      0.00000000	      0.00000000
      2.81071429	     -4.01823816	     -5.20101757	      2.19999401	      0.96974050	      0.91124193	      0.51237700	     15.35812504	      6.15232841	     -5.15154043	     30.23858965	     30.23858965	     18.87047813	    -10.62026043	      0.54404887	     34.04401674	    -11.76694404	      4.99357251	     63.61290938	     63.61290938	     15.28603727	    -19.60264955	     22.93041681	    -13.09441633	      5.34976553	     -0.17646483	     15.17163409	    -17.54117650	      0.04083528	     68.63426647	     44.78453674	      0.00000000	      0.00000000	      3.90499948	    -10.20845467	      2.07495549	     26.27165239	     46.83453312	      0.00000000	      0.00000000
      2.82857143	     -3.89499097	     -5.01168888	      2.93476426	      0.96954787	      0.91045344	      0.51202790	     15.11248644	      5.95043355	     -5.34954515	     30.72331242	     30.72331242	     19.30112662	    -11.32276418	      0.60344295	     34.67517307	    -11.38963299	      4.84786278	     61.15654901	     61.15654901	     15.73188971	    -19.59221211	     22.93579194	    -13.11971799	      5.03277536	     -0.25465782	     16.87149845	    -17.10058329	     -0.00540489	     71.00870867	     44.72108753	      0.00000000	      0.00000000	      2.59769382	    -10.34429654	      1.95030574	     25.39003095	     46.82460829	      0.00000000	      0.00000000
      2.84642857	     -3.89703998	     -4.82956263	      3.66612251	      0.96923539	      0.90995227	      0.51125328	     14.86011372	      5.70044929	     -5.66302372	     30.94241348	     30.94241348	     19.65699245	    -11.79521699	      0.73507651	     35.18459482	    -10.82896452	      4.85699805	     58.20981815	     58.20981815	     15.83274310	    -19.54898780	     22.54688805	    -13.06903936	      4.79821398	     -0.35538433	     18.49484332	    -16.67722374	      0.05079636	     73.90794308	     44.64003058	      0.00000000	      0.00000000	      1.31379832	    -10.41794245	      1.77775971	     24.75860533	     46.81926122	      0.00000000	      0.00000000
      2.86428571	     -3.94008645	     -4.61070736	      4.34854153	      0.96893773	      0.90981576	      0.51019964	     14.54301556	      5.37076449	     -6.02658615	     30.98971933	     30.98971933	     20.00976320	    -11.97310603	      0.91674547	     35.42511710	    -10.10271177	      5.00658178	     54.81773871	     54.81773871	     15.35985213	    -19.47112287	     21.20365319	    -12.97931573	      4.52528487	     -0.12984812	     19.79276290	    -16.51391228	      0.25177117	     77.45741109	     44.54493637	      0.00000000	      0.00000000	      0.09520023	    -10.45874122	      1.43363655	     24.70455898	     46.82854432	      0.00000000	      0.00000000
      2.88214286	     -4.06539067	     -4.33841536	      4.96758620	      0.96853000	      0.91005968	      0.50873687	     14.18310343	      4.93969381	     -6.41771999	     30.81241086	     30.81241086	     20.23208898	    -11.98352372	      0.97734660	     35.47546025	     -9.21319542	      5.29090355	     51.10810529	     51.10810529	     14.67227768	    -19.33109018	     19.71563171	    -12.85643069	      4.23115687	     -0.03170580	     21.48477887	    -16.08543825	      0.30790211	     80.34125606	     44.47920836	      0.00000000	      0.00000000	     -1.08631131	    -10.45905959	      1.21597811	     24.81517465	     46.81458469	      0.00000000	      0.00000000
      2.90000000	     -4.22049842	     -4.06443304	      5.50748861	      0.96821238	      0.91065564	      0.50702067	     13.75085334	      4.47997825	     -6.84133864	     30.46142719	     30.46142719	     20.36489837	    -11.80727676	      0.92365535	     35.27850662	     -8.30492194	      5.71043516	     47.15223629	     47.15223629	     13.48213460	    -19.07425794	     17.24501999	    -12.69795948	      3.94269855	      0.25935767	     23.11364979	    -15.74742442	      0.62429424	     83.24392643	     44.41433153	      0.00000000	      0.00000000	     -2.32924007	    -10.44797162	      0.98730010	     25.47100109	     46.78710496	      0.00000000	      0.00000000
      2.91785714	     -4.33062637	     -3.72261081	      5.95979569	      0.96800186	      0.91173108	      0.50514047	     13.14840109	      3.98362937	     -7.10849020	     29.90983550	     29.90983550	     20.38371751	    -11.64124788	      0.94010337	     34.82136180	     -7.32016702	      6.31545211	     43.19213347	     43.19213347	     12.89203539	    -18.57044739	     16.49542069	    -12.57899256	      3.57485795	      0.50260798	     25.06851944	    -15.12537910	      0.80926187	     85.26607012	     44.36324170	      0.00000000	      0.00000000	     -3.28959105	    -10.41793492	      0.96072585	     25.56257574	     46.75726001	      0.00000000	      0.00000000
      2.93571429	     -4.50284018	     -3.45783488	      6.35773383	      0.96793693	      0.91294405	      0.50302397	     12.50147957	      3.53207345	     -7.49113408	     29.16713993	     29.16713993	     20.37277063	    -11.21955262	      0.89096698	     34.30266397	     -6.55557010	      6.80588054	     39.29257686	     39.29257686	     12.23890315	    -17.54252787	     15.30497635	    -12.38926809	      3.30542898	      0.74919932	     26.95246808	    -14.55958759	      1.27672458	     87.62364170	     44.29278954	      0.00000000	      0.00000000	     -4.33242309	    -10.35225713	      0.91698679	     26.00339769	     46.72639065	      0.00000000	      0.00000000
      2.95357143	     -4.76535342	     -3.37888226	      6.69788319	      0.96798642	      0.91387078	      0.50086801	     11.92015772	      3.27438450	     -7.89274236	     28.31662125	     28.31662125	     20.09835238	    -10.83339758	      0.21632295	     33.68962534	     -6.19447552	      7.01398094	     35.19989776	     35.19989776	      9.64707866	    -16.50489218	      8.81440868	    -12.12698354	      3.21867650	      0.99965219	     28.88325008	    -14.42277303	      2.47823173	     90.33819551	     44.27655010	      0.00000000	      0.00000000	     -6.06863028	    -10.39746634	      1.10995196	     28.67511591	     46.55960571	      0.00000000	      0.00000000
      2.97142857	     -5.09941858	     -3.21540587	      6.95715253	      0.96809450	      0.91496344	      0.49854060	     11.38708823	      2.94740203	     -8.13457920	     27.44677346	     27.44677346	     19.98919351	    -10.47873029	      0.32950875	     33.28381741	     -5.74068055	      7.21053462	     31.91163165	     31.91163165	      9.64821732	    -14.69689669	      9.03800530	    -11.70576867	      2.98143471	      1.51205525	     30.78276964	    -13.93256758	      2.73525677	     91.80075601	     44.23565392	      0.00000000	      0.00000000	     -6.65188793	    -10.21162045	      1.17898437	     28.67421085	     46.53344319	      0.00000000	      0.00000000
      2.98928571	     -5.21022770	     -3.19672677	      7.21847842	      0.96862414	      0.91609858	      0.49602670	     10.48735215	      2.72426709	     -8.74691660	     26.39077891	     26.39077891	     19.90967022	     -9.46128979	      0.08456111	     32.69039401	     -5.58873171	      7.09903296	     29.06974393	     29.06974393	      9.54698199	    -12.60142823	      8.30072436	    -11.61442433	      2.98187670	      1.63800218	     32.63656762	    -13.58163717	      4.19398433	     94.82877928	     44.12884710	      0.00000000	      0.00000000	     -7.75464038	    -10.10418879	      1.30838623	     29.75731283	     46.47038887	      0.00000000	      0.00000000
      3.00714286	     -5.41486775	     -3.10672572	      7.40966926	      0.96925281	      0.91704306	      0.49341689	      9.72184940	      2.50177749	     -8.97860456	     25.40333900	     25.40333900	     19.81445785	     -8.99393159	      0.10117451	     32.12968371	     -5.35560267	      6.92065140	     26.56229872	     26.56229872	      9.38623596	    -11.05632230	      8.22819957	    -11.33411327	      2.81779909	      1.98116615	     34.40406401	    -13.05182312	      4.84975328	     96.53494188	     44.07503469	      0.00000000	      0.00000000	     -8.40591121	     -9.92552525	      1.44788677	     30.20572132	     46.42896786	      0.00000000	      0.00000000
      3.02500000	     -5.66211221	     -3.17861971	      7.59799983	      0.97004668	      0.91742277	      0.49067654	      9.01521077	      2.39414550	     -9.45381409	     24.43728703	     24.43728703	     19.73654905	     -8.20044302	     -0.25039026	     31.80182419	     -5.33561104	      6.49136019	     24.70201113	     24.70201113	      8.95010220	     -9.64209188	      7.15137554	    -11.04465023	      2.82980032	      2.14991827	     36.17561621	    -12.96626359	      6.53105185	     99.00309816	     43.99271909	      0.00000000	      0.00000000	     -9.45320798	     -9.83081998	      1.81068708	     31.70953970	     46.33495313	      0.00000000	      0.00000000
      3.04285714	     -5.84908795	     -3.19103159	      7.74815950	      0.97104917	      0.91772199	      0.48781344	      8.23696142	      2.29473564	     -9.65679278	     23.48749432	     23.48749432	     19.71964273	     -7.77110110	     -0.21645041	     31.39796741	     -5.23672158	      6.07439456	     23.27409389	     23.27409389	      8.65214132	     -8.83252339	      6.95748722	    -10.77660835	      2.72838547	      2.28806009	     37.80537023	    -12.24567788	      7.09739256	    100.51829607	     43.94889528	      0.00000000	      0.00000000	     -9.94540952	     -9.61659259	      2.05150662	     31.92214146	     46.28709212	      0.00000000	      0.00000000
